<svg width="18" height="18" viewBox="0 0 18 18" fill="none" xmlns="http://www.w3.org/2000/svg">
<path d="M10.0767 9.00038L12.7676 6.30874C12.8403 6.23852 12.8983 6.15453 12.9382 6.06165C12.9781 5.96878 12.9991 5.8689 13 5.76783C13.0008 5.66675 12.9816 5.56652 12.9433 5.47297C12.905 5.37942 12.8485 5.29443 12.777 5.22295C12.7056 5.15148 12.6206 5.09496 12.527 5.05668C12.4335 5.01841 12.3332 4.99915 12.2322 5.00003C12.1311 5.00091 12.0312 5.02191 11.9383 5.0618C11.8455 5.10169 11.7615 5.15969 11.6913 5.23239L8.99962 7.92327L6.30874 5.23239C6.23852 5.15969 6.15453 5.10169 6.06165 5.0618C5.96878 5.02191 5.8689 5.00091 5.76783 5.00003C5.66675 4.99915 5.56652 5.01841 5.47297 5.05668C5.37942 5.09496 5.29443 5.15148 5.22295 5.22295C5.15148 5.29443 5.09496 5.37942 5.05668 5.47297C5.01841 5.56652 4.99915 5.66675 5.00003 5.76783C5.00091 5.8689 5.02191 5.96878 5.0618 6.06165C5.10169 6.15453 5.15969 6.23852 5.23239 6.30874L7.92327 8.99962L5.23239 11.6913C5.15969 11.7615 5.10169 11.8455 5.0618 11.9383C5.02191 12.0312 5.00091 12.1311 5.00003 12.2322C4.99915 12.3332 5.01841 12.4335 5.05668 12.527C5.09496 12.6206 5.15148 12.7056 5.22295 12.777C5.29443 12.8485 5.37942 12.905 5.47297 12.9433C5.56652 12.9816 5.66675 13.0008 5.76783 13C5.8689 12.9991 5.96878 12.9781 6.06165 12.9382C6.15453 12.8983 6.23852 12.8403 6.30874 12.7676L8.99962 10.0767L11.6913 12.7676C11.7615 12.8403 11.8455 12.8983 11.9383 12.9382C12.0312 12.9781 12.1311 12.9991 12.2322 13C12.3332 13.0008 12.4335 12.9816 12.527 12.9433C12.6206 12.905 12.7056 12.8485 12.777 12.777C12.8485 12.7056 12.905 12.6206 12.9433 12.527C12.9816 12.4335 13.0008 12.3332 13 12.2322C12.9991 12.1311 12.9781 12.0312 12.9382 11.9383C12.8983 11.8455 12.8403 11.7615 12.7676 11.6913L10.0767 8.99962V9.00038Z" fill="#8492A6"/>
</svg>
