<svg width="18" height="18" viewBox="0 0 18 18" fill="none" xmlns="http://www.w3.org/2000/svg">
<path d="M3.4018 4.33476H14.5984C14.8458 4.33476 15.0831 4.43307 15.2581 4.60805C15.4331 4.78303 15.5314 5.02035 15.5314 5.26781C15.5314 5.51527 15.4331 5.75259 15.2581 5.92757C15.0831 6.10255 14.8458 6.20086 14.5984 6.20086H3.4018C3.15434 6.20086 2.91701 6.10255 2.74203 5.92757C2.56705 5.75259 2.46875 5.51527 2.46875 5.26781C2.46875 5.02035 2.56705 4.78303 2.74203 4.60805C2.91701 4.43307 3.15434 4.33476 3.4018 4.33476V4.33476ZM3.4018 11.7991H14.5984C14.8458 11.7991 15.0831 11.8974 15.2581 12.0724C15.4331 12.2474 15.5314 12.4847 15.5314 12.7322C15.5314 12.9796 15.4331 13.217 15.2581 13.392C15.0831 13.5669 14.8458 13.6652 14.5984 13.6652H3.4018C3.15434 13.6652 2.91701 13.5669 2.74203 13.392C2.56705 13.217 2.46875 12.9796 2.46875 12.7322C2.46875 12.4847 2.56705 12.2474 2.74203 12.0724C2.91701 11.8974 3.15434 11.7991 3.4018 11.7991ZM3.4018 8.06695H14.5984C14.8458 8.06695 15.0831 8.16526 15.2581 8.34024C15.4331 8.51522 15.5314 8.75254 15.5314 9C15.5314 9.24746 15.4331 9.48478 15.2581 9.65976C15.0831 9.83474 14.8458 9.93305 14.5984 9.93305H3.4018C3.15434 9.93305 2.91701 9.83474 2.74203 9.65976C2.56705 9.48478 2.46875 9.24746 2.46875 9C2.46875 8.75254 2.56705 8.51522 2.74203 8.34024C2.91701 8.16526 3.15434 8.06695 3.4018 8.06695Z" fill="#8492A6"/>
</svg>
