<svg width="40" height="41" viewBox="0 0 40 41" fill="none" xmlns="http://www.w3.org/2000/svg">
<circle cx="20" cy="20.194" r="20" fill="#E6F7F8"/>
<path d="M28.3124 29.194H16.5085C16.3567 29.1302 16.2153 29.0435 16.0891 28.9368C15.8218 28.7912 15.5969 28.577 15.4368 28.3156C15.2768 28.0542 15.1874 27.7547 15.1774 27.4472C15.1463 26.4574 15.9478 25.62 16.9641 25.5806C16.9876 25.5796 17.0125 25.5791 17.0384 25.5791C17.4162 25.5799 17.7852 25.6945 18.0986 25.9083C18.2119 25.9837 18.3158 26.0728 18.408 26.1736C18.5458 26.3765 18.7102 26.5595 18.8967 26.7174C19.7062 27.4055 20.8169 27.7545 22.1979 27.7545C22.9536 27.7745 23.7038 27.6178 24.3901 27.2963C24.9678 27.0182 25.4516 26.5731 25.7806 26.0171C26.1041 25.447 26.2692 24.7987 26.2582 24.1411C26.2582 22.6845 25.4718 21.69 23.9209 21.1853V21.0991C24.5128 20.978 25.0458 20.6546 25.4309 20.1831C25.5718 20.0136 25.6887 19.825 25.7783 19.6228L29.7739 26.629C29.922 26.889 30 27.184 30 27.4843C30 27.7845 29.922 28.0795 29.7739 28.3395C29.6257 28.5995 29.4127 28.8154 29.1561 28.9654C28.8996 29.1155 28.6086 29.1942 28.3124 29.194ZM15.955 29.194H13.5649C13.2232 29.0525 12.9375 28.7997 12.753 28.4755C12.6032 28.2193 12.5241 27.9269 12.5241 27.629C12.5241 27.3311 12.6032 27.0387 12.753 26.7825L18.2785 17.6758C18.3223 17.8483 18.4026 18.0092 18.5138 18.1471C18.6251 18.285 18.7647 18.3967 18.9229 18.4743C19.1183 18.5834 19.3371 18.6421 19.5602 18.6452C20.244 18.6452 20.74 18.0507 20.9518 17.7969L20.9536 17.7946L20.9585 17.7887C20.9688 17.7764 20.9783 17.765 20.9873 17.7546C21.102 17.6171 21.2465 17.5084 21.4095 17.4369C21.5953 17.363 21.7937 17.3271 21.9933 17.3314C22.1929 17.3357 22.3896 17.3801 22.5721 17.4621C22.6391 17.5151 22.702 17.558 22.7526 17.5924L22.7561 17.5948H22.757C22.7915 17.6164 22.8244 17.6407 22.8553 17.6673C22.9677 17.7825 23.053 17.9219 23.1048 18.0752C23.1628 18.2528 23.1909 18.4391 23.1879 18.6262C23.1922 18.8363 23.1531 19.0451 23.073 19.239C22.9973 19.4126 22.8786 19.5634 22.7284 19.6768C22.5561 19.8021 22.3608 19.8914 22.154 19.9394C21.8904 20.0014 21.6202 20.0308 21.3496 20.0269C21.3237 20.0269 21.2951 20.0269 21.2597 20.0261C20.9469 20.0261 19.9262 20.1154 19.9262 21.2639C19.9247 21.4638 19.9802 21.6599 20.086 21.8286C20.1918 21.9973 20.3433 22.1315 20.5224 22.215C20.7089 22.3119 20.9103 22.3759 21.118 22.4042C21.2119 22.3992 21.3037 22.3966 21.3926 22.3966C21.7487 22.3891 22.1034 22.4425 22.4419 22.5547C22.7011 22.6405 22.9331 22.7944 23.1143 23.0009L23.1157 23.0025L23.117 23.004C23.3279 23.2658 23.438 23.5963 23.4267 23.9341C23.4291 24.1212 23.3981 24.3071 23.3352 24.483C23.2743 24.6462 23.1806 24.7948 23.06 24.9193C22.9383 25.0458 22.7904 25.1433 22.6271 25.2048C22.4459 25.2707 22.2544 25.3029 22.0619 25.3C21.8265 25.3043 21.5923 25.2648 21.371 25.1833C21.1779 25.1094 21.0053 24.9893 20.8678 24.8333C20.8663 24.8316 20.8648 24.8299 20.8634 24.8281L20.8618 24.8264L20.861 24.8254L20.8596 24.824L20.8568 24.8209L20.8508 24.8141V24.8133L20.8495 24.8117C20.5534 24.4796 19.9573 23.9225 19.2909 23.9225C19.0474 23.9237 18.8102 24.0004 18.6109 24.1423C18.4419 24.2481 18.3024 24.3958 18.2054 24.5715C18.1084 24.7472 18.0572 24.945 18.0566 25.1464C18.0581 25.3055 18.084 25.4635 18.1336 25.6146C17.7644 25.3809 17.3366 25.2604 16.9015 25.2675C16.4917 25.2688 16.0913 25.3914 15.7492 25.6201C15.4071 25.8489 15.1384 26.1739 14.9759 26.5553C14.8674 26.8098 14.8115 27.0841 14.8116 27.3613C14.8116 27.6325 14.8658 27.9009 14.9708 28.1504C15.0758 28.3998 15.2295 28.6251 15.4227 28.8127C15.5793 28.9669 15.7587 29.0954 15.9545 29.1933L15.955 29.194ZM12.9546 29.194H11.6876C11.3914 29.1942 11.1004 29.1153 10.8439 28.9653C10.5873 28.8153 10.3743 28.5994 10.2261 28.3394C10.078 28.0794 10 27.7844 10 27.4841C9.99999 27.1839 10.078 26.8889 10.2261 26.6289L18.5381 12.0489C18.6863 11.7889 18.8994 11.5731 19.1559 11.423C19.4124 11.273 19.7034 11.194 19.9995 11.194C20.2957 11.194 20.5866 11.273 20.8431 11.423C21.0997 11.5731 21.3127 11.7889 21.461 12.0489L23.1279 14.9725C22.765 14.9066 22.397 14.8745 22.0284 14.8764C20.704 14.8764 19.6592 15.2254 18.9234 15.9135C18.6373 16.1793 18.4266 16.5179 18.3131 16.8941L12.357 26.7891C12.2156 27.0552 12.1353 27.3503 12.122 27.6522C12.0932 27.9497 12.149 28.2492 12.2829 28.5155C12.4373 28.8026 12.6709 29.0384 12.9546 29.194Z" fill="#3BBFCB"/>
</svg>

